<svg width="67" height="50" viewBox="0 0 67 50" fill="none" xmlns="http://www.w3.org/2000/svg">
<g filter="url(#filter0_dd_5862_1351)">
<rect x="9.96429" y="5.48218" width="46.6143" height="30.0304" rx="5.37857" fill="white"/>
<rect x="9.46429" y="4.98218" width="47.6143" height="31.0304" rx="5.87857" stroke="#383B42"/>
<path d="M25.0413 16.5638C25.3523 16.1748 25.5634 15.6525 25.5077 15.1188C25.0525 15.1414 24.4969 15.4191 24.1753 15.8084C23.8865 16.1418 23.6309 16.6859 23.6975 17.1973C24.2086 17.2416 24.7191 16.9418 25.0413 16.5638Z" fill="#000008"/>
<path d="M25.5019 17.2971C24.7598 17.2529 24.1288 17.7183 23.7743 17.7183C23.4197 17.7183 22.877 17.3194 22.29 17.3302C21.526 17.3414 20.8171 17.7734 20.4293 18.4604C19.6319 19.8349 20.2189 21.8737 20.9944 22.9931C21.371 23.5469 21.8248 24.1567 22.4228 24.1348C22.9879 24.1126 23.2093 23.7689 23.8962 23.7689C24.5825 23.7689 24.782 24.1348 25.3801 24.1237C26.0004 24.1126 26.3881 23.5696 26.7647 23.0153C27.1967 22.3839 27.3736 21.7743 27.3847 21.7409C27.3736 21.7298 26.1887 21.2752 26.1777 19.9122C26.1665 18.7709 27.108 18.2281 27.1523 18.1944C26.6206 17.4081 25.7899 17.3194 25.5019 17.2971Z" fill="#000008"/>
<path d="M31.964 15.7526C33.577 15.7526 34.7003 16.8645 34.7003 18.4833C34.7003 20.1079 33.5539 21.2256 31.9235 21.2256H30.1376V24.0658H28.8472V15.7526L31.964 15.7526ZM30.1376 20.1425H31.6182C32.7416 20.1425 33.381 19.5376 33.381 18.4891C33.381 17.4406 32.7416 16.8415 31.6239 16.8415H30.1376V20.1425Z" fill="#000008"/>
<path d="M35.0374 22.3433C35.0374 21.2831 35.8497 20.6322 37.2901 20.5515L38.9491 20.4536V19.987C38.9491 19.3129 38.494 18.9097 37.7337 18.9097C37.0134 18.9097 36.564 19.2553 36.4546 19.7969H35.2794C35.3485 18.7022 36.2817 17.8957 37.7797 17.8957C39.2487 17.8957 40.1877 18.6734 40.1877 19.889V24.0658H38.9951V23.0691H38.9665C38.6151 23.7432 37.8488 24.1694 37.0538 24.1694C35.867 24.1694 35.0374 23.432 35.0374 22.3433ZM38.9491 21.796V21.3178L37.457 21.4099C36.7138 21.4618 36.2933 21.7902 36.2933 22.3087C36.2933 22.8386 36.7311 23.1843 37.3994 23.1843C38.2693 23.1843 38.9491 22.5852 38.9491 21.796Z" fill="#000008"/>
<path d="M41.3136 26.2953V25.2871C41.4056 25.3101 41.6129 25.3101 41.7167 25.3101C42.2928 25.3101 42.6039 25.0682 42.794 24.446C42.794 24.4345 42.9035 24.0773 42.9035 24.0715L40.7144 18.0051H42.0623L43.5949 22.9366H43.6178L45.1504 18.0051H46.4639L44.1939 24.3826C43.6756 25.8517 43.0764 26.3241 41.8205 26.3241C41.7167 26.3241 41.4056 26.3126 41.3136 26.2953Z" fill="#000008"/>
</g>
<defs>
<filter id="filter0_dd_5862_1351" x="8.58307e-06" y="3.48091e-05" width="66.5429" height="49.959" filterUnits="userSpaceOnUse" color-interpolation-filters="sRGB">
<feFlood flood-opacity="0" result="BackgroundImageFix"/>
<feColorMatrix in="SourceAlpha" type="matrix" values="0 0 0 0 0 0 0 0 0 0 0 0 0 0 0 0 0 0 127 0" result="hardAlpha"/>
<feOffset dy="0.448214"/>
<feGaussianBlur stdDeviation="2.24107"/>
<feColorMatrix type="matrix" values="0 0 0 0 0.717647 0 0 0 0 0.717647 0 0 0 0 0.717647 0 0 0 0.08 0"/>
<feBlend mode="normal" in2="BackgroundImageFix" result="effect1_dropShadow_5862_1351"/>
<feColorMatrix in="SourceAlpha" type="matrix" values="0 0 0 0 0 0 0 0 0 0 0 0 0 0 0 0 0 0 127 0" result="hardAlpha"/>
<feOffset dy="4.48214"/>
<feGaussianBlur stdDeviation="4.48214"/>
<feColorMatrix type="matrix" values="0 0 0 0 0.717647 0 0 0 0 0.717647 0 0 0 0 0.717647 0 0 0 0.08 0"/>
<feBlend mode="normal" in2="effect1_dropShadow_5862_1351" result="effect2_dropShadow_5862_1351"/>
<feBlend mode="normal" in="SourceGraphic" in2="effect2_dropShadow_5862_1351" result="shape"/>
</filter>
</defs>
</svg>
