<svg width="80" height="80" viewBox="0 0 80 80" fill="none" xmlns="http://www.w3.org/2000/svg">
<path d="M11 44C11 42.8954 11.8954 42 13 42H21C26.5228 42 31 46.4772 31 52V58C31 63.5228 26.5228 68 21 68H13C11.8954 68 11 67.1046 11 66V44Z" fill="#E05816"/>
<path d="M69 44C69 42.8954 68.1046 42 67 42H59C53.4772 42 49 46.4772 49 52V58C49 63.5228 53.4772 68 59 68H67C68.1046 68 69 67.1046 69 66V44Z" fill="#EE701D"/>
<path fill-rule="evenodd" clip-rule="evenodd" d="M66.7925 29.2849C68.2499 32.682 69 36.323 69 40H65.4248C65.3614 36.8883 64.7072 33.8141 63.4941 30.936C62.2161 27.9038 60.3429 25.1486 57.9814 22.8279C55.6199 20.5071 52.8165 18.6662 49.7311 17.4102C46.6457 16.1543 43.3387 15.5078 39.9991 15.5078C36.6595 15.5078 33.3526 16.1543 30.2672 17.4102C27.1818 18.6662 24.3783 20.5071 22.0169 22.8279C19.6554 25.1486 17.7822 27.9038 16.5042 30.936C15.2911 33.8141 14.6368 36.8883 14.5735 40H11C11 36.323 11.7501 32.682 13.2075 29.2849C14.6649 25.8877 16.801 22.8011 19.4939 20.201C22.1868 17.601 25.3837 15.5385 28.9022 14.1314C32.4206 12.7242 36.1917 12 40 12C43.8083 12 47.5794 12.7242 51.0978 14.1314C54.6163 15.5385 57.8132 17.601 60.5061 20.201C63.199 22.8011 65.3351 25.8877 66.7925 29.2849Z" fill="#F29145"/>
</svg>
