<svg width="80" height="80" viewBox="0 0 80 80" fill="none" xmlns="http://www.w3.org/2000/svg">
<path d="M11 28C11 26.8954 11.8954 26 13 26H67C68.1046 26 69 26.8954 69 28V36H11V28Z" fill="#F29145"/>
<path d="M11 64C11 65.1046 11.8954 66 13 66H67C68.1046 66 69 65.1046 69 64V56H11V64Z" fill="#EE701D"/>
<rect x="12" y="38" width="4" height="4" fill="#E05816"/>
<rect x="17" y="38" width="4" height="4" fill="#E05816"/>
<rect x="22" y="38" width="4" height="4" fill="#E05816"/>
<rect x="27" y="38" width="4" height="4" fill="#E05816"/>
<rect x="32" y="38" width="4" height="4" fill="#E05816"/>
<rect x="37" y="38" width="4" height="4" fill="#E05816"/>
<rect x="42" y="38" width="4" height="4" fill="#E05816"/>
<rect x="47" y="38" width="4" height="4" fill="#E05816"/>
<rect x="52" y="38" width="4" height="4" fill="#E05816"/>
<rect x="57" y="38" width="4" height="4" fill="#E05816"/>
<rect x="62" y="38" width="4" height="4" fill="#E05816"/>
<rect x="14" y="44" width="4" height="4" fill="#E05816"/>
<rect x="19" y="44" width="4" height="4" fill="#E05816"/>
<rect x="24" y="44" width="4" height="4" fill="#E05816"/>
<rect x="29" y="44" width="4" height="4" fill="#E05816"/>
<rect x="34" y="44" width="4" height="4" fill="#E05816"/>
<rect x="39" y="44" width="4" height="4" fill="#E05816"/>
<rect x="44" y="44" width="4" height="4" fill="#E05816"/>
<rect x="49" y="44" width="4" height="4" fill="#E05816"/>
<rect x="54" y="44" width="4" height="4" fill="#E05816"/>
<rect x="59" y="44" width="4" height="4" fill="#E05816"/>
<rect x="64" y="44" width="4" height="4" fill="#E05816"/>
<rect x="12" y="50" width="4" height="4" fill="#E05816"/>
<rect x="17" y="50" width="4" height="4" fill="#E05816"/>
<rect x="22" y="50" width="4" height="4" fill="#E05816"/>
<rect x="27" y="50" width="4" height="4" fill="#E05816"/>
<rect x="32" y="50" width="4" height="4" fill="#E05816"/>
<rect x="37" y="50" width="4" height="4" fill="#E05816"/>
<rect x="42" y="50" width="4" height="4" fill="#E05816"/>
<rect x="47" y="50" width="4" height="4" fill="#E05816"/>
<rect x="52" y="50" width="4" height="4" fill="#E05816"/>
<rect x="57" y="50" width="4" height="4" fill="#E05816"/>
<rect x="62" y="50" width="4" height="4" fill="#E05816"/>
<path d="M59 23V19.4286H21V13H59" stroke="#F29145" stroke-width="2" stroke-linecap="round"/>
</svg>
