<svg width="80" height="80" viewBox="0 0 80 80" fill="none" xmlns="http://www.w3.org/2000/svg">
<path d="M12 16C12 12.6863 14.6863 10 18 10H62C65.3137 10 68 12.6863 68 16V41H12V16Z" fill="#E05816"/>
<path d="M12 48C12 51.3137 14.6863 54 18 54H62C65.3137 54 68 51.3137 68 48V43H12V48Z" fill="#EE701D"/>
<path fill-rule="evenodd" clip-rule="evenodd" d="M39 56C38.4477 56 38 56.4477 38 57V63H30.5C29.1193 63 28 64.1193 28 65.5V66.5C28 67.8807 29.1193 69 30.5 69H51.5C52.8807 69 54 67.8807 54 66.5V65.5C54 64.1193 52.8807 63 51.5 63H44V57C44 56.4477 43.5523 56 43 56H39Z" fill="#F29145"/>
</svg>
