<svg width="80" height="80" viewBox="0 0 80 80" fill="none" xmlns="http://www.w3.org/2000/svg">
<path d="M64 27C64 23.9796 63.4051 20.9888 62.2492 18.1983C61.0934 15.4078 59.3992 12.8723 57.2635 10.7365C55.1277 8.6008 52.5922 6.90663 49.8017 5.75077C47.0112 4.59491 44.0204 4 41 4L41 27H64Z" fill="#EE701D"/>
<path d="M16 27C16 23.9796 16.5949 20.9888 17.7508 18.1983C18.9066 15.4078 20.6008 12.8723 22.7365 10.7365C24.8723 8.6008 27.4078 6.90663 30.1983 5.75077C32.9888 4.59491 35.9796 4 39 4L39 27H16Z" fill="#F29145"/>
<path d="M16 29H64V52.5C64 65.4787 53.4787 76 40.5 76H39.5C26.5213 76 16 65.4787 16 52.5V29Z" fill="#E05816"/>
</svg>
