<svg width="67" height="50" viewBox="0 0 67 50" fill="none" xmlns="http://www.w3.org/2000/svg">
<g filter="url(#filter0_dd_5862_1349)">
<rect x="9.96429" y="5.48218" width="46.6143" height="30.0304" rx="5.37857" fill="white"/>
<rect x="9.46429" y="4.98218" width="47.6143" height="31.0304" rx="5.87857" stroke="#383B42"/>
<path fill-rule="evenodd" clip-rule="evenodd" d="M20.1614 16.1282H17.4739C17.29 16.1282 17.1336 16.2618 17.1049 16.4433L16.018 23.334C15.9964 23.47 16.1017 23.5926 16.2396 23.5926H17.5227C17.7066 23.5926 17.863 23.4589 17.8917 23.2771L18.1848 21.4186C18.2131 21.2366 18.3699 21.1031 18.5534 21.1031H19.4042C21.1745 21.1031 22.1962 20.2465 22.4632 18.5491C22.5834 17.8065 22.4683 17.223 22.1204 16.8142C21.7385 16.3656 21.0609 16.1282 20.1614 16.1282ZM20.4715 18.6449C20.3246 19.6092 19.5877 19.6092 18.8753 19.6092H18.4697L18.7542 17.8083C18.7711 17.6996 18.8654 17.6194 18.9755 17.6194H19.1614C19.6467 17.6194 20.1045 17.6194 20.3411 17.896C20.482 18.0611 20.5253 18.3062 20.4715 18.6449ZM28.195 18.614H26.908C26.7984 18.614 26.7036 18.6942 26.6867 18.8031L26.6298 19.163L26.5398 19.0326C26.2612 18.6282 25.64 18.4931 25.0199 18.4931C23.5976 18.4931 22.383 19.5701 22.1464 21.0809C22.0234 21.8345 22.1982 22.5551 22.6257 23.0576C23.018 23.5197 23.5792 23.7122 24.2468 23.7122C25.3927 23.7122 26.0282 22.9755 26.0282 22.9755L25.9708 23.3331C25.9491 23.4699 26.0544 23.5924 26.1915 23.5924H27.3509C27.5353 23.5924 27.6907 23.4588 27.7198 23.2769L28.4154 18.8726C28.4374 18.7371 28.3325 18.614 28.195 18.614ZM26.401 21.1186C26.2768 21.8537 25.6933 22.3472 24.9491 22.3472C24.5754 22.3472 24.2766 22.2274 24.0849 22.0003C23.8947 21.7748 23.8223 21.4537 23.8829 21.0962C23.9989 20.3672 24.5923 19.8577 25.3252 19.8577C25.6905 19.8577 25.9877 19.979 26.1834 20.2081C26.3794 20.4396 26.4572 20.7625 26.401 21.1186ZM33.7559 18.6138H35.0493C35.2304 18.6138 35.3361 18.8169 35.2331 18.9655L30.9317 25.1736C30.8621 25.2742 30.7473 25.334 30.6248 25.334H29.3331C29.1512 25.334 29.045 25.1293 29.1503 24.9803L30.4897 23.09L29.0652 18.91C29.0159 18.7647 29.1232 18.6138 29.2778 18.6138H30.5486C30.7137 18.6138 30.8594 18.7222 30.907 18.8802L31.663 21.4048L33.4468 18.7777C33.5166 18.6751 33.6326 18.6138 33.7559 18.6138Z" fill="#253B80"/>
<path fill-rule="evenodd" clip-rule="evenodd" d="M47.7785 23.3334L48.8814 16.3167C48.8984 16.2077 48.9927 16.1276 49.1024 16.1272H50.3441C50.4812 16.1272 50.5865 16.2501 50.5649 16.3861L49.4772 23.2765C49.4488 23.4583 49.2924 23.592 49.1082 23.592H47.9993C47.8621 23.592 47.7569 23.4694 47.7785 23.3334ZM39.3316 16.1276H36.6436C36.4601 16.1276 36.3037 16.2612 36.275 16.4427L35.188 23.3334C35.1664 23.4694 35.2717 23.592 35.409 23.592H36.7881C36.9164 23.592 37.026 23.4985 37.046 23.3712L37.3544 21.418C37.3828 21.236 37.5396 21.1025 37.7231 21.1025H38.5734C40.3441 21.1025 41.3656 20.2459 41.6327 18.5485C41.7533 17.8059 41.6375 17.2224 41.2898 16.8136C40.908 16.365 40.231 16.1276 39.3316 16.1276ZM39.6416 18.6443C39.495 19.6086 38.7582 19.6086 38.0453 19.6086H37.6401L37.9251 17.8077C37.942 17.699 38.0355 17.6188 38.1459 17.6188H38.3317C38.8167 17.6188 39.275 17.6188 39.5114 17.8953C39.6525 18.0604 39.6954 18.3056 39.6416 18.6443ZM47.3644 18.6134H46.0783C45.9678 18.6134 45.8739 18.6936 45.8574 18.8025L45.8005 19.1624L45.7101 19.032C45.4315 18.6276 44.8106 18.4925 44.1905 18.4925C42.7682 18.4925 41.554 19.5695 41.3174 21.0803C41.1948 21.8338 41.3689 22.5544 41.7964 23.057C42.1894 23.5191 42.7499 23.7116 43.4175 23.7116C44.5633 23.7116 45.1987 22.9748 45.1987 22.9748L45.1414 23.3325C45.1198 23.4692 45.2251 23.5918 45.3631 23.5918H46.5219C46.7054 23.5918 46.8618 23.4581 46.8905 23.2763L47.5865 18.872C47.6077 18.7365 47.5024 18.6134 47.3644 18.6134ZM45.5706 21.118C45.4471 21.8531 44.8628 22.3466 44.1185 22.3466C43.7455 22.3466 43.4462 22.2268 43.2543 21.9997C43.0641 21.7742 42.9926 21.4531 43.0525 21.0956C43.169 20.3666 43.7617 19.8571 44.4946 19.8571C44.8601 19.8571 45.1571 19.9784 45.3529 20.2075C45.5497 20.439 45.6275 20.7619 45.5706 21.118Z" fill="#179BD7"/>
</g>
<defs>
<filter id="filter0_dd_5862_1349" x="8.58307e-06" y="3.48091e-05" width="66.5429" height="49.959" filterUnits="userSpaceOnUse" color-interpolation-filters="sRGB">
<feFlood flood-opacity="0" result="BackgroundImageFix"/>
<feColorMatrix in="SourceAlpha" type="matrix" values="0 0 0 0 0 0 0 0 0 0 0 0 0 0 0 0 0 0 127 0" result="hardAlpha"/>
<feOffset dy="0.448214"/>
<feGaussianBlur stdDeviation="2.24107"/>
<feColorMatrix type="matrix" values="0 0 0 0 0.717647 0 0 0 0 0.717647 0 0 0 0 0.717647 0 0 0 0.08 0"/>
<feBlend mode="normal" in2="BackgroundImageFix" result="effect1_dropShadow_5862_1349"/>
<feColorMatrix in="SourceAlpha" type="matrix" values="0 0 0 0 0 0 0 0 0 0 0 0 0 0 0 0 0 0 127 0" result="hardAlpha"/>
<feOffset dy="4.48214"/>
<feGaussianBlur stdDeviation="4.48214"/>
<feColorMatrix type="matrix" values="0 0 0 0 0.717647 0 0 0 0 0.717647 0 0 0 0 0.717647 0 0 0 0.08 0"/>
<feBlend mode="normal" in2="effect1_dropShadow_5862_1349" result="effect2_dropShadow_5862_1349"/>
<feBlend mode="normal" in="SourceGraphic" in2="effect2_dropShadow_5862_1349" result="shape"/>
</filter>
</defs>
</svg>
