<svg width="22" height="24" viewBox="0 0 22 24" fill="none" xmlns="http://www.w3.org/2000/svg">
<path d="M13.4375 9.0625C13.4375 9.0625 14.0625 10.3125 14.0625 12.8125C14.0625 15.3125 13.4375 16.5625 13.4375 16.5625M8.4375 9.0625C8.4375 9.0625 7.8125 10.3125 7.8125 12.8125C7.8125 15.3125 8.4375 16.5625 8.4375 16.5625M3.43749 4.6875C3.43749 12.0109 1.72633 22.1875 10.9375 22.1875C20.1486 22.1875 18.4375 12.0109 18.4375 4.6875M0.9375 4.6875H20.9375M14.6875 4.6875V3.4375C14.6875 1.2187 12.6409 0.9375 10.9375 0.9375C9.23413 0.9375 7.1875 1.2187 7.1875 3.4375V4.6875" stroke="#F87171" stroke-width="1.875" stroke-linecap="round" stroke-linejoin="round"/>
</svg>
