<svg width="80" height="80" viewBox="0 0 80 80" fill="none" xmlns="http://www.w3.org/2000/svg">
<rect x="28" y="12" width="24" height="9" rx="2" fill="#EE701D"/>
<path fill-rule="evenodd" clip-rule="evenodd" d="M16 23C12.6863 23 10 25.6863 10 29V61C10 64.3137 12.6863 67 16 67H64C67.3137 67 70 64.3137 70 61V29C70 25.6863 67.3137 23 64 23H16ZM40 58C47.1797 58 53 52.1797 53 45C53 37.8203 47.1797 32 40 32C32.8203 32 27 37.8203 27 45C27 52.1797 32.8203 58 40 58Z" fill="#E05816"/>
<circle cx="40" cy="45" r="10" fill="#F29145"/>
</svg>
